# xmcd CD database file
#
# Track frame offsets:
#	150
#	18748
#	35513
#	58187
#	75280
#	92496
#	106752
#	117281
#	139295
#	155393
#	168199
#	184323
#	202855
#	217027
#	240241
#
# Disc length: 3474 seconds
#
# Revision: 1
# Processed by: cddbd v1.5.2PL0 Copyright (c) Steve Scherf et al.
# Submitted via: CDex 1.70beta2
#
DISCID=be0d900f
DTITLE=John Wilson - Cole Porter In Hollywood
DYEAR=2014
DGENRE=Jazz
TTITLE0=Stereophonic Sound
TTITLE1=Begin To Beguine
TTITLE2=Love Of My Life
TTITLE3=From This Moment On
TTITLE4=Always True To You In My Fashion
TTITLE5=Wuderbar
TTITLE6=Easy To Love
TTITLE7=Josephine
TTITLE8=Overture
TTITLE9=Who Wants To Be A Millionaire
TTITLE10=My Heart Belongs To Daddy
TTITLE11=It's All Right With Me
TTITLE12=Let's Do It
TTITLE13=Les Girls
TTITLE14=Now You Has Jazz
EXTD=YEAR: 2014
EXTT0=
EXTT1=
EXTT2=
EXTT3=
EXTT4=
EXTT5=
EXTT6=
EXTT7=
EXTT8=
EXTT9=
EXTT10=
EXTT11=
EXTT12=
EXTT13=
EXTT14=
PLAYORDER=
